<?xml version="1.0" encoding="utf-8"?>
<!-- Generator: Adobe Illustrator 26.0.3, SVG Export Plug-In . SVG Version: 6.00 Build 0)  -->
<svg version="1.0" id="katman_1" xmlns="http://www.w3.org/2000/svg" x="0px" y="0px"
	 viewBox="0 0 600 450" style="enable-background:new 0 0 600 450;" xml:space="preserve">
<style type="text/css">
	.st0{fill:#57B892;}
	.st1{fill-rule:evenodd;clip-rule:evenodd;fill:#57B892;}
</style>
<path class="st0" d="M83.4,206.7H141c1.1,0,2,0.9,2,2v6.7c0,1.1-0.9,2-2,2H83.4c-1.1,0-2-0.9-2-2v-6.7
	C81.4,207.6,82.3,206.7,83.4,206.7z"/>
<path class="st0" d="M45.3,233.4h57.5c1.1,0,2,0.9,2,2v6.7c0,1.1-0.9,2-2,2H45.3c-1.1,0-2-0.9-2-2v-6.7
	C43.4,234.3,44.2,233.4,45.3,233.4z"/>
<path class="st1" d="M50.7,214c1.1,0.3,2.1-0.3,2.4-1.4c6.6-20.7,27.9-32.9,49.1-28.2c1,0.2,2-0.4,2.3-1.4l1.7-6.5
	c0.3-1.1-0.4-2.2-1.4-2.4c0,0-0.1,0-0.1,0c-26.8-6-53.7,9.5-61.9,35.8c-0.3,1.1,0.3,2.2,1.4,2.5c0,0,0,0,0,0L50.7,214z"/>
<path class="st1" d="M135.6,236.7c-1.1-0.3-2.1,0.3-2.4,1.4c-6.6,20.7-27.9,32.9-49.1,28.3c-1-0.2-2,0.4-2.3,1.4l-1.7,6.4
	c-0.3,1.1,0.4,2.2,1.4,2.4c0,0,0.1,0,0.1,0c26.8,6,53.7-9.6,61.9-35.8c0.3-1-0.3-2.1-1.3-2.5c0,0,0,0-0.1,0L135.6,236.7z"/>
<circle class="st0" cx="123.6" cy="189.2" r="5.9"/>
<circle class="st0" cx="62.7" cy="261.6" r="5.9"/>
<path class="st1" d="M286.3,214.8c4.3-4.7,10.5-7.4,16.9-7.3c6.2,0,11,1.9,14,5.6v-3c0-0.9,0.7-1.6,1.6-1.6h8.1
	c0.9,0.1,1.6,0.7,1.6,1.6v45.1c0.3,6.4-1.7,12.6-5.6,17.7c-4.4,5.3-11,8-19.8,8c-12.1,0-21.7-7.7-23.3-18.6
	c-0.1-0.8,0.4-1.6,1.2-1.8l7.9-1.9c0,0,0.1,0,0.1,0c0.9-0.1,1.7,0.5,1.8,1.3c0,0,0,0,0,0c0.7,6.1,6,10.7,12.2,10.6
	c9.5,0,13.9-4.9,13.9-15v-3.9c-3.5,3.9-8.6,6.1-13.9,5.9c-13.5,0-23.3-10.5-23.3-24.9C279.7,226,282,219.7,286.3,214.8z
	 M443.7,206.9h0.4c14.5,0.2,23.5,10.3,23.5,26.5c0,0.9,0,1.7-0.1,2.6c-0.1,0.8-0.8,1.4-1.6,1.4h-34.5c0.2,7.2,6.2,13,13.4,12.9
	c5.6,0.4,10.7-3.2,12.3-8.6c0.3-0.8,1.2-1.2,2-1l6.9,2.4c0.4,0.1,0.7,0.4,0.9,0.8c0.2,0.4,0.2,0.8,0.1,1.2
	c-3.2,9.5-12.2,15.7-22.2,15.4c-6.5,0.1-12.8-2.5-17.5-7.1c-5.1-5.3-7.8-12.5-7.5-19.8C419.8,216.8,432,206.8,443.7,206.9
	L443.7,206.9z M248.6,206.9c14.8,0,23.9,10.1,23.9,26.5c0,0.9,0,1.7-0.1,2.6c-0.1,0.8-0.8,1.4-1.6,1.4h-34.5
	c0.2,7.3,6.2,13,13.5,12.9c5.6,0.4,10.7-3.2,12.3-8.6c0.3-0.8,1.2-1.2,2-1l6.9,2.4c0.4,0.1,0.7,0.4,0.9,0.8c0.2,0.4,0.2,0.8,0,1.2
	c-3.2,9.5-12.2,15.7-22.2,15.4c-6.6,0.1-12.9-2.5-17.5-7.1c-5.1-5.3-7.8-12.5-7.5-19.8C224.8,216.8,236.9,206.9,248.6,206.9
	L248.6,206.9z M196.4,206.9c6.6,0,12,1.6,16,4.8c2.7,2.1,4.7,5,5.7,8.3l0,0c0.1,0.6-0.2,1.2-0.8,1.3c0,0,0,0,0,0l-8.2,2.7
	c-0.4,0.1-0.8,0.1-1.1,0c-0.3-0.1-0.5-0.4-0.6-0.8c-0.7-2.7-3.1-7.1-10.9-7.1c-5.4,0-8.7,3.1-8.7,6.1c0,2,1,4.6,5.9,5.5l9,1.7
	c10.1,2,15.9,7.6,15.9,15.3v-0.1c0,7.6-7.4,15.8-21,15.8c-15.8,0-22.1-9-23.2-14.3c-0.1-0.6,0.3-1.1,0.8-1.3l8.5-2.6
	c0.2,0,0.3,0,0.5,0c0.2,0,0.5,0.1,0.7,0.2c0.3,0.1,0.5,0.4,0.6,0.8c1.1,5.1,5.7,8.1,12.3,8.1c6.2,0,9-3.2,9-6.1s-2.5-5.1-6.8-5.9
	l-9.5-1.8c-8.9-1.7-14.4-7.2-14.4-14.4C175.9,214.2,185.3,206.9,196.4,206.9z M545.7,192.7c0.9,0.1,1.6,0.8,1.6,1.7v13.9h8.9
	c0.9,0.1,1.6,0.8,1.6,1.7v7.4c0,0.9-0.7,1.6-1.6,1.6h-8.9v24.7c0,4.1,1.6,5.8,5.8,5.8c1,0,1.9-0.1,2.8-0.2c0.5-0.1,0.9,0.1,1.3,0.4
	c0.3,0.3,0.5,0.8,0.5,1.2v7c0,0.7-0.5,1.3-1.1,1.5c-2,0.6-4.1,0.8-6.3,0.8c-8.9,0-14.5-5.7-14.5-15v-26.1h-7.7
	c-0.9-0.1-1.6-0.7-1.6-1.6v-7.4c0-0.9,0.7-1.6,1.6-1.7h2c2.4,0,6.5-0.8,6.5-6.6v-7.4c0-0.9,0.7-1.6,1.6-1.7H545.7z M378.3,215.1
	c3.5-5.4,9.7-8.6,16.2-8.3l0,0c8.8,0,17.7,6.2,17.7,19.8V258c0,0.9-0.7,1.6-1.6,1.6h-8.1c-0.9-0.1-1.5-0.7-1.6-1.6v-30.4
	c0-3.8-1.2-10.3-9.3-10.3c-5.9,0-10.2,4.7-10.2,11.5V258c0,0.9-0.7,1.6-1.6,1.6h-8.2c-0.9-0.1-1.6-0.7-1.6-1.6v-30.4
	c0-3.8-1.2-10.3-9.3-10.3c-6.2,0-10.4,4.6-10.4,11.6V258c0,0.9-0.7,1.6-1.6,1.6h-8.1c-0.9-0.1-1.5-0.8-1.6-1.6v-48.1
	c0-0.9,0.7-1.6,1.6-1.6h7.8c0.9,0.1,1.5,0.7,1.6,1.6v2.9c3.5-3.9,8.5-6,13.7-5.9C369.7,206.7,375.3,209.9,378.3,215.1z M502.1,206.9
	c5.3-0.2,10.3,2,13.8,6c3.2,4.2,4.8,9.3,4.5,14.5V258c0,0.9-0.7,1.6-1.6,1.6h-8.2c-0.9-0.1-1.6-0.7-1.6-1.6v-29
	c0-7.6-3.6-11.5-10.4-11.5c-3-0.1-5.9,1.2-7.7,3.6c-1.8,2.6-2.8,5.8-2.6,9V258c0,0.9-0.7,1.6-1.6,1.6h-8.2c-0.9-0.1-1.5-0.7-1.6-1.6
	v-48.1c0-0.9,0.7-1.6,1.6-1.6h8c0.9,0.1,1.5,0.7,1.6,1.6v3.4C491.5,209.1,496.7,206.7,502.1,206.9z M304.5,217.6
	c-8,0-13.1,5.7-13.1,14.8c0,9.2,5,14.8,13.1,14.8c7.7,0,12.9-6,12.9-14.8S312.2,217.6,304.5,217.6z M248.7,217.2
	c-6.1-0.1-11.3,4.5-12,10.6h24.1C260.2,221.2,255.6,217.2,248.7,217.2z M443.8,217.2c-6.1-0.1-11.3,4.5-12,10.6H456
	C455.4,221.2,450.8,217.2,443.8,217.2L443.8,217.2z"/>
<path class="st0" d="M187.9,174.3v16.2h-4.6v-16.2H177v-3.9h17.3v3.9H187.9z"/>
<path class="st0" d="M222.9,190.6h-4.8l-4.4-14.8l-4.4,14.8h-4.7l-5.9-20.2h4.9l3.7,14.5l4.2-14.5h4.9l4.2,14.5l3.6-14.5h4.5
	L222.9,190.6z"/>
<path class="st0" d="M235,190.5v-20.1h4.5v20.1H235z"/>
<path class="st0" d="M247.7,190.5v-20.1h4.6v16.1h7.8v4H247.7z"/>
<path class="st0" d="M266.9,190.5v-20.1h4.5v20.1H266.9z"/>
<path class="st0" d="M288.4,190.9c-5.6,0-10-4-10-10.4s4.5-10.4,10-10.4c5.5,0,10,4,10,10.4S294,190.9,288.4,190.9z M288.4,173.7
	c-3.5,0-5.5,2.9-5.5,6.7c0,3.9,2.1,6.7,5.5,6.7c3.4,0,5.4-2.9,5.4-6.7S291.8,173.7,288.4,173.7L288.4,173.7z"/>
</svg>
