<svg width="21" height="21" viewBox="0 0 21 21" fill="none" xmlns="http://www.w3.org/2000/svg">
<path d="M14.25 5.25C14.25 4.37976 13.8549 3.54516 13.1517 2.92981C12.4484 2.31445 11.4946 1.96875 10.5 1.96875C9.50544 1.96875 8.55161 2.31445 7.84835 2.92981C7.14509 3.54516 6.75 4.37976 6.75 5.25C6.75 6.12024 7.14509 6.95484 7.84835 7.57019C8.55161 8.18555 9.50544 8.53125 10.5 8.53125C11.4946 8.53125 12.4484 8.18555 13.1517 7.57019C13.8549 6.95484 14.25 6.12024 14.25 5.25ZM4.5 5.25C4.5 3.85761 5.13214 2.52226 6.25736 1.53769C7.38258 0.553123 8.9087 0 10.5 0C12.0913 0 13.6174 0.553123 14.7426 1.53769C15.8679 2.52226 16.5 3.85761 16.5 5.25C16.5 6.64239 15.8679 7.97775 14.7426 8.96231C13.6174 9.94688 12.0913 10.5 10.5 10.5C8.9087 10.5 7.38258 9.94688 6.25736 8.96231C5.13214 7.97775 4.5 6.64239 4.5 5.25ZM2.31094 19.0312H18.6891C18.2719 16.435 15.7219 14.4375 12.6422 14.4375H8.35781C5.27813 14.4375 2.72812 16.435 2.31094 19.0312ZM0 19.7818C0 15.7418 3.74063 12.4688 8.35781 12.4688H12.6422C17.2594 12.4688 21 15.7418 21 19.7818C21 20.4545 20.3766 21 19.6078 21H1.39219C0.623438 21 0 20.4545 0 19.7818Z" fill="#09175F"/>
</svg>
